<mxfile host="app.diagrams.net" modified="2023-07-18T15:44:38.378Z" agent="Mozilla/5.0 (Windows NT 10.0; Win64; x64; rv:109.0) Gecko/20100101 Firefox/115.0" etag="ublzIRUXSewvULu6XVCG" version="21.6.2" type="device">
  <diagram name="Страница 1" id="iu7rIS_7qCbhCj-K2lL_">
    <mxGraphModel dx="1235" dy="1835" grid="1" gridSize="10" guides="1" tooltips="1" connect="1" arrows="1" fold="1" page="1" pageScale="1" pageWidth="827" pageHeight="1169" math="0" shadow="0">
      <root>
        <mxCell id="0" />
        <mxCell id="1" parent="0" />
        <mxCell id="R5ZOn_2btXVAhrP_JnIi-4" style="edgeStyle=orthogonalEdgeStyle;rounded=0;orthogonalLoop=1;jettySize=auto;html=1;entryX=0;entryY=0.5;entryDx=0;entryDy=0;" edge="1" parent="1" source="R5ZOn_2btXVAhrP_JnIi-2" target="R5ZOn_2btXVAhrP_JnIi-3">
          <mxGeometry relative="1" as="geometry" />
        </mxCell>
        <mxCell id="R5ZOn_2btXVAhrP_JnIi-6" style="edgeStyle=orthogonalEdgeStyle;rounded=0;orthogonalLoop=1;jettySize=auto;html=1;entryX=0.5;entryY=0;entryDx=0;entryDy=0;" edge="1" parent="1" source="R5ZOn_2btXVAhrP_JnIi-2" target="R5ZOn_2btXVAhrP_JnIi-5">
          <mxGeometry relative="1" as="geometry" />
        </mxCell>
        <mxCell id="R5ZOn_2btXVAhrP_JnIi-26" style="edgeStyle=orthogonalEdgeStyle;rounded=0;orthogonalLoop=1;jettySize=auto;html=1;entryX=1;entryY=0.5;entryDx=0;entryDy=0;" edge="1" parent="1" source="R5ZOn_2btXVAhrP_JnIi-2" target="R5ZOn_2btXVAhrP_JnIi-24">
          <mxGeometry relative="1" as="geometry" />
        </mxCell>
        <mxCell id="R5ZOn_2btXVAhrP_JnIi-32" style="edgeStyle=orthogonalEdgeStyle;rounded=0;orthogonalLoop=1;jettySize=auto;html=1;entryX=1;entryY=0.5;entryDx=0;entryDy=0;" edge="1" parent="1" source="R5ZOn_2btXVAhrP_JnIi-2" target="R5ZOn_2btXVAhrP_JnIi-27">
          <mxGeometry relative="1" as="geometry">
            <Array as="points">
              <mxPoint x="340" y="90" />
              <mxPoint x="340" y="10" />
              <mxPoint x="280" y="10" />
            </Array>
          </mxGeometry>
        </mxCell>
        <mxCell id="R5ZOn_2btXVAhrP_JnIi-2" value="Окно (View)" style="rounded=0;whiteSpace=wrap;html=1;" vertex="1" parent="1">
          <mxGeometry x="360" y="60" width="114" height="60" as="geometry" />
        </mxCell>
        <mxCell id="R5ZOn_2btXVAhrP_JnIi-15" style="edgeStyle=orthogonalEdgeStyle;rounded=0;orthogonalLoop=1;jettySize=auto;html=1;entryX=0;entryY=0.5;entryDx=0;entryDy=0;" edge="1" parent="1" source="R5ZOn_2btXVAhrP_JnIi-3" target="R5ZOn_2btXVAhrP_JnIi-14">
          <mxGeometry relative="1" as="geometry" />
        </mxCell>
        <mxCell id="R5ZOn_2btXVAhrP_JnIi-23" style="edgeStyle=orthogonalEdgeStyle;rounded=0;orthogonalLoop=1;jettySize=auto;html=1;entryX=1;entryY=0.5;entryDx=0;entryDy=0;" edge="1" parent="1" source="R5ZOn_2btXVAhrP_JnIi-3" target="R5ZOn_2btXVAhrP_JnIi-19">
          <mxGeometry relative="1" as="geometry" />
        </mxCell>
        <mxCell id="R5ZOn_2btXVAhrP_JnIi-3" value="ViewModel" style="rounded=0;whiteSpace=wrap;html=1;" vertex="1" parent="1">
          <mxGeometry x="520" y="60" width="120" height="60" as="geometry" />
        </mxCell>
        <mxCell id="R5ZOn_2btXVAhrP_JnIi-11" style="edgeStyle=orthogonalEdgeStyle;rounded=0;orthogonalLoop=1;jettySize=auto;html=1;entryX=0.5;entryY=0;entryDx=0;entryDy=0;" edge="1" parent="1" source="R5ZOn_2btXVAhrP_JnIi-5" target="R5ZOn_2btXVAhrP_JnIi-7">
          <mxGeometry relative="1" as="geometry" />
        </mxCell>
        <mxCell id="R5ZOn_2btXVAhrP_JnIi-21" style="edgeStyle=orthogonalEdgeStyle;rounded=0;orthogonalLoop=1;jettySize=auto;html=1;exitX=1;exitY=0.5;exitDx=0;exitDy=0;entryX=1;entryY=0.5;entryDx=0;entryDy=0;" edge="1" parent="1" source="R5ZOn_2btXVAhrP_JnIi-5" target="R5ZOn_2btXVAhrP_JnIi-19">
          <mxGeometry relative="1" as="geometry">
            <mxPoint x="730" y="390" as="targetPoint" />
          </mxGeometry>
        </mxCell>
        <mxCell id="R5ZOn_2btXVAhrP_JnIi-5" value="Класс логики" style="rounded=0;whiteSpace=wrap;html=1;" vertex="1" parent="1">
          <mxGeometry x="354" y="160" width="120" height="60" as="geometry" />
        </mxCell>
        <mxCell id="R5ZOn_2btXVAhrP_JnIi-17" style="edgeStyle=orthogonalEdgeStyle;rounded=0;orthogonalLoop=1;jettySize=auto;html=1;entryX=0;entryY=0.5;entryDx=0;entryDy=0;" edge="1" parent="1" source="R5ZOn_2btXVAhrP_JnIi-7" target="R5ZOn_2btXVAhrP_JnIi-16">
          <mxGeometry relative="1" as="geometry" />
        </mxCell>
        <mxCell id="R5ZOn_2btXVAhrP_JnIi-22" style="edgeStyle=orthogonalEdgeStyle;rounded=0;orthogonalLoop=1;jettySize=auto;html=1;entryX=0;entryY=0.5;entryDx=0;entryDy=0;" edge="1" parent="1" source="R5ZOn_2btXVAhrP_JnIi-7" target="R5ZOn_2btXVAhrP_JnIi-19">
          <mxGeometry relative="1" as="geometry" />
        </mxCell>
        <mxCell id="R5ZOn_2btXVAhrP_JnIi-7" value="Класс обработчика логики" style="rounded=0;whiteSpace=wrap;html=1;" vertex="1" parent="1">
          <mxGeometry x="354" y="260" width="120" height="60" as="geometry" />
        </mxCell>
        <mxCell id="R5ZOn_2btXVAhrP_JnIi-8" value="Логика не реализуется непосредственно в классе. Вместо этого она вызываются из класса обработчика. По факту все обработчики событий содержат лишь ссылки на обработчики в спец. классах" style="shape=note;whiteSpace=wrap;html=1;backgroundOutline=1;darkOpacity=0.05;" vertex="1" parent="1">
          <mxGeometry y="40" width="130" height="210" as="geometry" />
        </mxCell>
        <mxCell id="R5ZOn_2btXVAhrP_JnIi-10" value="" style="endArrow=none;dashed=1;html=1;dashPattern=1 3;strokeWidth=2;rounded=0;entryX=0.017;entryY=0.633;entryDx=0;entryDy=0;entryPerimeter=0;" edge="1" parent="1" source="R5ZOn_2btXVAhrP_JnIi-8" target="R5ZOn_2btXVAhrP_JnIi-5">
          <mxGeometry width="50" height="50" relative="1" as="geometry">
            <mxPoint x="150" y="200" as="sourcePoint" />
            <mxPoint x="220.71067811865476" y="150" as="targetPoint" />
          </mxGeometry>
        </mxCell>
        <mxCell id="R5ZOn_2btXVAhrP_JnIi-12" value="" style="endArrow=none;dashed=1;html=1;dashPattern=1 3;strokeWidth=2;rounded=0;exitX=0;exitY=0;exitDx=80;exitDy=65;exitPerimeter=0;" edge="1" parent="1" source="R5ZOn_2btXVAhrP_JnIi-13">
          <mxGeometry width="50" height="50" relative="1" as="geometry">
            <mxPoint x="180" y="350" as="sourcePoint" />
            <mxPoint x="350" y="290" as="targetPoint" />
            <Array as="points">
              <mxPoint x="350" y="290" />
              <mxPoint x="360" y="290" />
            </Array>
          </mxGeometry>
        </mxCell>
        <mxCell id="R5ZOn_2btXVAhrP_JnIi-13" value="Логика обработчика событий" style="shape=note;whiteSpace=wrap;html=1;backgroundOutline=1;darkOpacity=0.05;" vertex="1" parent="1">
          <mxGeometry y="290" width="80" height="100" as="geometry" />
        </mxCell>
        <mxCell id="R5ZOn_2btXVAhrP_JnIi-14" value="Model" style="rounded=0;whiteSpace=wrap;html=1;" vertex="1" parent="1">
          <mxGeometry x="690" y="60" width="120" height="60" as="geometry" />
        </mxCell>
        <mxCell id="R5ZOn_2btXVAhrP_JnIi-16" value="Утилитарные классы" style="rounded=0;whiteSpace=wrap;html=1;" vertex="1" parent="1">
          <mxGeometry x="550" y="260" width="120" height="60" as="geometry" />
        </mxCell>
        <mxCell id="R5ZOn_2btXVAhrP_JnIi-19" value="Классы репазиториев" style="rounded=0;whiteSpace=wrap;html=1;" vertex="1" parent="1">
          <mxGeometry x="550" y="360" width="120" height="60" as="geometry" />
        </mxCell>
        <mxCell id="R5ZOn_2btXVAhrP_JnIi-24" value="Пользовательские контролы" style="rounded=0;whiteSpace=wrap;html=1;" vertex="1" parent="1">
          <mxGeometry x="160" y="60" width="120" height="60" as="geometry" />
        </mxCell>
        <mxCell id="R5ZOn_2btXVAhrP_JnIi-27" value="Класс загрузчика(Loader)" style="rounded=0;whiteSpace=wrap;html=1;" vertex="1" parent="1">
          <mxGeometry x="160" y="-10" width="120" height="60" as="geometry" />
        </mxCell>
      </root>
    </mxGraphModel>
  </diagram>
</mxfile>
